#N canvas 319 43 896 737 10;
#X obj 134 647 sin;
#X obj 482 604 + 2005;
#X obj 222 617 random 22050;
#X floatatom 223 680 5 0 0 0 - - -;
#X obj 224 645 expr (($f1 / 22050) * ($f1 / 22050));
#X obj 785 379 bng 15 250 50 0 empty empty empty 17 7 0 10 -262144
-1 -1;
#X obj 782 441 expr size("sf1left");
#X floatatom 812 465 20 0 0 0 - - -;
#X obj 27 83 soundfiler;
#X obj 31 16 bng 15 250 50 0 empty empty empty 17 7 0 10 -262144 -1
-1;
#X msg 25 51 read -resize test1.wav sf1left;
#X obj 693 60 bng 15 250 50 0 empty empty empty 17 7 0 10 -262144 -1
-1;
#X obj 687 217 dac~;
#X obj 691 187 *~;
#X floatatom 745 152 5 0 0 0 - - -;
#X obj 745 184 / 100;
#X obj 691 106 tabplay~ sf1left;
#N canvas 0 0 450 300 (subpatch) 0;
#X array sf1left 220480 float 2;
#X coords 0 1 220480 -1 200 140 1 0 0;
#X restore 327 72 graph;
#X obj 386 280 until;
#X msg 528 500 0;
#X obj 295 343 s arrayindex;
#X obj 375 592 tabwrite sf1left;
#X obj 372 424 tabread sf1left;
#X obj 386 313 f;
#X obj 415 314 + 1;
#X obj 519 453 sel;
#N canvas 109 286 450 300 it 0;
#X obj 203 60 until;
#X msg 213 275 0;
#X obj 218 126 r arraysize;
#X obj 92 118 s arrayindex;
#X obj 60 337 tabwrite sf1left;
#X obj 71 209 tabread sf1left;
#X obj 69 13 r arraysize;
#X obj 17 119 print i;
#X obj 9 235 print v;
#X obj 71 88 f;
#X obj 100 89 + 1;
#X obj 35 18 tgl 15 0 empty empty empty 17 7 0 10 -262144 -1 -1 0 1
;
#X obj 204 228 sel;
#X obj 26 66 bng 15 250 50 0 empty empty empty 17 7 0 10 -262144 -1
-1;
#X obj 74 159 expr if($i1 >= $i2 \, $i2 + 1 \, $i1) \; $i2 + 1 \;;
#X obj 61 45 metro 1;
#X obj 61 283 * 0.1;
#X connect 1 0 9 0;
#X connect 2 0 14 1;
#X connect 5 0 8 0;
#X connect 5 0 16 0;
#X connect 9 0 10 0;
#X connect 9 0 7 0;
#X connect 9 0 4 1;
#X connect 9 0 14 0;
#X connect 10 0 9 1;
#X connect 11 0 15 0;
#X connect 12 0 1 0;
#X connect 13 0 9 0;
#X connect 14 0 5 0;
#X connect 14 0 12 0;
#X connect 14 1 12 1;
#X connect 15 0 9 0;
#X connect 16 0 4 0;
#X restore 127 325 pd it works;
#N canvas 544 134 575 300 newcontent 0;
#X obj 230 10 inlet;
#X obj 86 224 outlet;
#X obj 88 156 expr sin(2 * 3.14159 * $f1 / $f2);
#X obj 87 109 r arrayindex;
#X obj 182 59 random 22050;
#X floatatom 360 151 5 0 0 0 - - -;
#X floatatom 142 46 5 0 0 0 - - -;
#X obj 181 91 expr (($f1 / 22050) * ($f1 / 22050)) * (441 - 4) + 4
;
#X connect 0 0 4 0;
#X connect 2 0 1 0;
#X connect 3 0 2 0;
#X connect 4 0 7 0;
#X connect 6 0 7 0;
#X connect 7 0 5 0;
#X connect 7 0 2 1;
#X restore 421 489 pd newcontent;
#X obj 365 520 +;
#X obj 785 340 until;
#X obj 411 514 * 0.01;
#X obj 372 557 clip -1 1;
#X msg 787 291 2500;
#X obj 782 505 s arraysize2;
#X obj 384 238 r arraysize2;
#X obj 577 346 r arraysize1;
#X msg 41 205 \; sf1left const \$1;
#X obj 374 376 expr if($i1 >= size("sf1left") \, size("sf1left") +
1 \, $i1) \; $i2 + 1 \;;
#X msg 854 276 50;
#X connect 2 0 4 0;
#X connect 4 0 3 0;
#X connect 5 0 6 0;
#X connect 6 0 7 0;
#X connect 6 0 33 0;
#X connect 9 0 10 0;
#X connect 10 0 8 0;
#X connect 11 0 16 0;
#X connect 13 0 12 0;
#X connect 13 0 12 1;
#X connect 14 0 15 0;
#X connect 15 0 13 1;
#X connect 16 0 13 0;
#X connect 18 0 23 0;
#X connect 19 0 23 0;
#X connect 22 0 28 0;
#X connect 23 0 24 0;
#X connect 23 0 21 1;
#X connect 23 0 20 0;
#X connect 23 0 37 0;
#X connect 24 0 23 1;
#X connect 25 0 19 0;
#X connect 25 0 27 0;
#X connect 27 0 30 0;
#X connect 28 0 31 0;
#X connect 29 0 5 0;
#X connect 30 0 28 1;
#X connect 31 0 21 0;
#X connect 32 0 29 0;
#X connect 34 0 18 0;
#X connect 35 0 37 1;
#X connect 37 0 22 0;
#X connect 37 0 25 0;
#X connect 37 1 25 1;
#X connect 38 0 29 0;

